<?xml version="1.0" encoding="UTF-8" standalone="no"?>
<!DOCTYPE svg PUBLIC "-//W3C//DTD SVG 1.0//EN"
 "http://www.w3.org/TR/2001/REC-SVG-20010904/DTD/svg10.dtd" [
 <!ATTLIST svg xmlns:xlink CDATA #FIXED "http://www.w3.org/1999/xlink">
]>
<!-- Generated by Graphviz version 2.20.2 (Mon Mar 30 10:09:11 UTC 2009)
     For user: (eswald) Eric Wald,,, -->
<!-- Title: G Pages: 1 -->
<svg width="774pt" height="767pt"
 viewBox="0.00 0.00 774.00 767.00" xmlns="http://www.w3.org/2000/svg" xmlns:xlink="http://www.w3.org/1999/xlink">
<g id="graph0" class="graph" transform="scale(1 1) rotate(0) translate(4 763)">
<title>G</title>
<polygon style="fill:white;stroke:white;" points="-4,4 -4,-763 770,-763 770,4 -4,4"/>
<!-- A1 -->
<g id="node1" class="node"><title>A1</title>
<ellipse style="fill:lightgrey;stroke:black;" cx="70" cy="-170" rx="23.8245" ry="18"/>
<text text-anchor="middle" x="70" y="-165.9" style="font-family:Times New Roman;font-size:14.00;">A1</text>
</g>
<!-- A2 -->
<g id="node2" class="node"><title>A2</title>
<ellipse style="fill:blue;stroke:black;" cx="145" cy="-138" rx="23.8245" ry="18"/>
<text text-anchor="middle" x="145" y="-133.9" style="font-family:Times New Roman;font-size:14.00;">A2</text>
</g>
<!-- A1&#45;&#45;A2 -->
<g id="edge2" class="edge"><title>A1&#45;&#45;A2</title>
<path style="fill:none;stroke:black;stroke-width:2;" d="M91,-161C101,-157 114,-151 124,-147"/>
</g>
<!-- B3 -->
<g id="node9" class="node"><title>B3</title>
<ellipse style="fill:red;stroke:black;" cx="606" cy="-87" rx="23.8245" ry="18"/>
<text text-anchor="middle" x="606" y="-82.9" style="font-family:Times New Roman;font-size:14.00;">B3</text>
</g>
<!-- A1&#45;&#45;B3 -->
<g id="edge62" class="edge"><title>A1&#45;&#45;B3</title>
<path style="fill:none;stroke:black;stroke-dasharray:5,2;" d="M94,-166C182,-152 493,-104 582,-91"/>
</g>
<!-- A3 -->
<g id="node3" class="node"><title>A3</title>
<ellipse style="fill:lightgrey;stroke:black;" cx="181" cy="-65" rx="23.8245" ry="18"/>
<text text-anchor="middle" x="181" y="-60.9" style="font-family:Times New Roman;font-size:14.00;">A3</text>
</g>
<!-- A2&#45;&#45;A3 -->
<g id="edge4" class="edge"><title>A2&#45;&#45;A3</title>
<path style="fill:none;stroke:black;stroke-width:2;" d="M153,-121C159,-110 167,-94 173,-82"/>
</g>
<!-- A5 -->
<g id="node5" class="node"><title>A5</title>
<ellipse style="fill:lightgrey;stroke:black;" cx="197" cy="-194" rx="23.8245" ry="18"/>
<text text-anchor="middle" x="197" y="-189.9" style="font-family:Times New Roman;font-size:14.00;">A5</text>
</g>
<!-- A2&#45;&#45;A5 -->
<g id="edge6" class="edge"><title>A2&#45;&#45;A5</title>
<path style="fill:none;stroke:black;stroke-width:2;" d="M159,-153C166,-161 175,-171 183,-179"/>
</g>
<!-- B1 -->
<g id="node7" class="node"><title>B1</title>
<ellipse style="fill:red;stroke:black;" cx="470" cy="-19" rx="23.8245" ry="18"/>
<text text-anchor="middle" x="470" y="-14.9" style="font-family:Times New Roman;font-size:14.00;">B1</text>
</g>
<!-- A3&#45;&#45;B1 -->
<g id="edge52" class="edge"><title>A3&#45;&#45;B1</title>
<path style="fill:none;stroke:black;" d="M205,-61C259,-52 392,-31 446,-23"/>
</g>
<!-- A4 -->
<g id="node4" class="node"><title>A4</title>
<ellipse style="fill:blue;stroke:black;" cx="270" cy="-216" rx="23.8245" ry="18"/>
<text text-anchor="middle" x="270" y="-211.9" style="font-family:Times New Roman;font-size:14.00;">A4</text>
</g>
<!-- A4&#45;&#45;A5 -->
<g id="edge8" class="edge"><title>A4&#45;&#45;A5</title>
<path style="fill:none;stroke:black;stroke-width:2;" d="M248,-209C239,-206 228,-203 219,-201"/>
</g>
<!-- C4 -->
<g id="node18" class="node"><title>C4</title>
<ellipse style="fill:lightgrey;stroke:black;" cx="558" cy="-445" rx="23.8245" ry="18"/>
<text text-anchor="middle" x="558" y="-440.9" style="font-family:Times New Roman;font-size:14.00;">C4</text>
</g>
<!-- A4&#45;&#45;C6 -->
<g id="edge72" class="edge"><title>A4&#45;&#45;C6</title>
<path style="fill:none;stroke:black;" d="M287,-229L550,-352"/>
</g>
<!-- A6 -->
<g id="node6" class="node"><title>A6</title>
<ellipse style="fill:blue;stroke:black;" cx="193" cy="-269" rx="23.8245" ry="18"/>
<text text-anchor="middle" x="193" y="-264.9" style="font-family:Times New Roman;font-size:14.00;">A6</text>
</g>
<!-- A5&#45;&#45;A6 -->
<g id="edge10" class="edge"><title>A5&#45;&#45;A6</title>
<path style="fill:none;stroke:black;stroke-width:2;" d="M196,-212C195,-224 195,-239 194,-251"/>
</g>
<!-- C6 -->
<g id="node16" class="node"><title>C6</title>
<ellipse style="fill:lightgrey;stroke:black;" cx="573" cy="-357" rx="23.8245" ry="18"/>
<text text-anchor="middle" x="573" y="-352.9" style="font-family:Times New Roman;font-size:14.00;">C6</text>
</g>
<!-- A6&#45;&#45;C4 -->
<g id="edge82" class="edge"><title>A6&#45;&#45;C4</title>
<path style="fill:none;stroke:black;" d="M216,-274L541,-432"/>
</g>
<!-- B2 -->
<g id="node8" class="node"><title>B2</title>
<ellipse style="fill:lightgrey;stroke:black;" cx="525" cy="-78" rx="23.8245" ry="18"/>
<text text-anchor="middle" x="525" y="-73.9" style="font-family:Times New Roman;font-size:14.00;">B2</text>
</g>
<!-- B1&#45;&#45;B2 -->
<g id="edge12" class="edge"><title>B1&#45;&#45;B2</title>
<path style="fill:none;stroke:black;stroke-width:2;" d="M484,-34C492,-43 503,-54 511,-63"/>
</g>
<!-- C3 -->
<g id="node15" class="node"><title>C3</title>
<ellipse style="fill:lightgrey;stroke:black;" cx="717" cy="-504" rx="23.8245" ry="18"/>
<text text-anchor="middle" x="717" y="-499.9" style="font-family:Times New Roman;font-size:14.00;">C3</text>
</g>
<!-- B1&#45;&#45;C3 -->
<g id="edge64" class="edge"><title>B1&#45;&#45;C3</title>
<path style="fill:none;stroke:black;stroke-dasharray:5,2;" d="M479,-36C517,-111 670,-412 708,-487"/>
</g>
<!-- B2&#45;&#45;B3 -->
<g id="edge14" class="edge"><title>B2&#45;&#45;B3</title>
<path style="fill:none;stroke:black;stroke-width:2;" d="M549,-81C560,-82 572,-83 582,-84"/>
</g>
<!-- B5 -->
<g id="node11" class="node"><title>B5</title>
<ellipse style="fill:red;stroke:black;" cx="491" cy="-147" rx="23.8245" ry="18"/>
<text text-anchor="middle" x="491" y="-142.9" style="font-family:Times New Roman;font-size:14.00;">B5</text>
</g>
<!-- B2&#45;&#45;B5 -->
<g id="edge16" class="edge"><title>B2&#45;&#45;B5</title>
<path style="fill:none;stroke:black;stroke-width:2;" d="M517,-95C512,-105 505,-119 500,-130"/>
</g>
<!-- C1 -->
<g id="node13" class="node"><title>C1</title>
<ellipse style="fill:lightgrey;stroke:black;" cx="741" cy="-353" rx="23.8245" ry="18"/>
<text text-anchor="middle" x="741" y="-348.9" style="font-family:Times New Roman;font-size:14.00;">C1</text>
</g>
<!-- B3&#45;&#45;C1 -->
<g id="edge54" class="edge"><title>B3&#45;&#45;C1</title>
<path style="fill:none;stroke:black;" d="M615,-104C639,-152 708,-288 732,-336"/>
</g>
<!-- B4 -->
<g id="node10" class="node"><title>B4</title>
<ellipse style="fill:lightgrey;stroke:black;" cx="510" cy="-220" rx="23.8245" ry="18"/>
<text text-anchor="middle" x="510" y="-215.9" style="font-family:Times New Roman;font-size:14.00;">B4</text>
</g>
<!-- B4&#45;&#45;B5 -->
<g id="edge18" class="edge"><title>B4&#45;&#45;B5</title>
<path style="fill:none;stroke:black;stroke-width:2;" d="M505,-202C502,-191 499,-176 496,-165"/>
</g>
<!-- D6 -->
<g id="node24" class="node"><title>D6</title>
<ellipse style="fill:lightgrey;stroke:black;" cx="452" cy="-557" rx="25.0158" ry="18"/>
<text text-anchor="middle" x="452" y="-552.9" style="font-family:Times New Roman;font-size:14.00;">D6</text>
</g>
<!-- B4&#45;&#45;D6 -->
<g id="edge74" class="edge"><title>B4&#45;&#45;D6</title>
<path style="fill:none;stroke:black;" d="M507,-238C497,-297 465,-480 455,-539"/>
</g>
<!-- B6 -->
<g id="node12" class="node"><title>B6</title>
<ellipse style="fill:lightgrey;stroke:black;" cx="422" cy="-180" rx="23.8245" ry="18"/>
<text text-anchor="middle" x="422" y="-175.9" style="font-family:Times New Roman;font-size:14.00;">B6</text>
</g>
<!-- B5&#45;&#45;B6 -->
<g id="edge20" class="edge"><title>B5&#45;&#45;B6</title>
<path style="fill:none;stroke:black;stroke-width:2;" d="M471,-157C462,-161 451,-166 442,-170"/>
</g>
<!-- D4 -->
<g id="node22" class="node"><title>D4</title>
<ellipse style="fill:lightgrey;stroke:black;" cx="358" cy="-575" rx="25.0158" ry="18"/>
<text text-anchor="middle" x="358" y="-570.9" style="font-family:Times New Roman;font-size:14.00;">D4</text>
</g>
<!-- B6&#45;&#45;D4 -->
<g id="edge84" class="edge"><title>B6&#45;&#45;D4</title>
<path style="fill:none;stroke:black;" d="M419,-198C409,-264 372,-491 361,-557"/>
</g>
<!-- C2 -->
<g id="node14" class="node"><title>C2</title>
<ellipse style="fill:green;stroke:black;" cx="701" cy="-424" rx="23.8245" ry="18"/>
<text text-anchor="middle" x="701" y="-419.9" style="font-family:Times New Roman;font-size:14.00;">C2</text>
</g>
<!-- C1&#45;&#45;C2 -->
<g id="edge22" class="edge"><title>C1&#45;&#45;C2</title>
<path style="fill:none;stroke:black;stroke-width:2;" d="M732,-370C726,-381 717,-396 711,-407"/>
</g>
<!-- D3 -->
<g id="node21" class="node"><title>D3</title>
<ellipse style="fill:red;stroke:black;" cx="359" cy="-740" rx="25.0158" ry="18"/>
<text text-anchor="middle" x="359" y="-735.9" style="font-family:Times New Roman;font-size:14.00;">D3</text>
</g>
<!-- C1&#45;&#45;D3 -->
<g id="edge66" class="edge"><title>C1&#45;&#45;D3</title>
<path style="fill:none;stroke:black;stroke-dasharray:5,2;" d="M726,-368C666,-429 434,-664 374,-725"/>
</g>
<!-- C2&#45;&#45;C3 -->
<g id="edge24" class="edge"><title>C2&#45;&#45;C3</title>
<path style="fill:none;stroke:black;stroke-width:2;" d="M705,-442C707,-455 711,-473 713,-486"/>
</g>
<!-- C5 -->
<g id="node17" class="node"><title>C5</title>
<ellipse style="fill:green;stroke:black;" cx="626" cy="-412" rx="23.8245" ry="18"/>
<text text-anchor="middle" x="626" y="-407.9" style="font-family:Times New Roman;font-size:14.00;">C5</text>
</g>
<!-- C2&#45;&#45;C5 -->
<g id="edge26" class="edge"><title>C2&#45;&#45;C5</title>
<path style="fill:none;stroke:black;stroke-width:2;" d="M677,-420C668,-419 658,-417 650,-416"/>
</g>
<!-- D1 -->
<g id="node19" class="node"><title>D1</title>
<ellipse style="fill:red;stroke:black;" cx="509" cy="-714" rx="25.0158" ry="18"/>
<text text-anchor="middle" x="509" y="-709.9" style="font-family:Times New Roman;font-size:14.00;">D1</text>
</g>
<!-- C3&#45;&#45;D1 -->
<g id="edge56" class="edge"><title>C3&#45;&#45;D1</title>
<path style="fill:none;stroke:black;" d="M702,-519C664,-558 562,-661 524,-699"/>
</g>
<!-- C6&#45;&#45;C5 -->
<g id="edge28" class="edge"><title>C6&#45;&#45;C5</title>
<path style="fill:none;stroke:black;stroke-width:2;" d="M587,-372C595,-380 604,-389 612,-397"/>
</g>
<!-- E6 -->
<g id="node30" class="node"><title>E6</title>
<ellipse style="fill:blue;stroke:black;" cx="228" cy="-496" rx="23.1233" ry="18"/>
<text text-anchor="middle" x="228" y="-491.9" style="font-family:Times New Roman;font-size:14.00;">E6</text>
</g>
<!-- C4&#45;&#45;E6 -->
<g id="edge76" class="edge"><title>C4&#45;&#45;E6</title>
<path style="fill:none;stroke:black;" d="M534,-443L249,-488"/>
</g>
<!-- C5&#45;&#45;C4 -->
<g id="edge30" class="edge"><title>C5&#45;&#45;C4</title>
<path style="fill:none;stroke:black;stroke-width:2;" d="M606,-422C597,-426 587,-431 579,-435"/>
</g>
<!-- E4 -->
<g id="node28" class="node"><title>E4</title>
<ellipse style="fill:blue;stroke:black;" cx="177" cy="-419" rx="23.1233" ry="18"/>
<text text-anchor="middle" x="177" y="-414.9" style="font-family:Times New Roman;font-size:14.00;">E4</text>
</g>
<!-- C6&#45;&#45;E4 -->
<g id="edge86" class="edge"><title>C6&#45;&#45;E4</title>
<path style="fill:none;stroke:black;" d="M552,-366L200,-421"/>
</g>
<!-- D2 -->
<g id="node20" class="node"><title>D2</title>
<ellipse style="fill:lightgrey;stroke:black;" cx="430" cy="-699" rx="25.0158" ry="18"/>
<text text-anchor="middle" x="430" y="-694.9" style="font-family:Times New Roman;font-size:14.00;">D2</text>
</g>
<!-- D1&#45;&#45;D2 -->
<g id="edge32" class="edge"><title>D1&#45;&#45;D2</title>
<path style="fill:none;stroke:black;stroke-width:2;" d="M484,-709C475,-707 464,-705 454,-704"/>
</g>
<!-- E3 -->
<g id="node27" class="node"><title>E3</title>
<ellipse style="fill:lightgrey;stroke:black;" cx="24" cy="-469" rx="23.1233" ry="18"/>
<text text-anchor="middle" x="24" y="-464.9" style="font-family:Times New Roman;font-size:14.00;">E3</text>
</g>
<!-- D1&#45;&#45;E3 -->
<g id="edge68" class="edge"><title>D1&#45;&#45;E3</title>
<path style="fill:none;stroke:black;stroke-dasharray:5,2;" d="M488,-704C409,-663 121,-518 43,-479"/>
</g>
<!-- D2&#45;&#45;D3 -->
<g id="edge34" class="edge"><title>D2&#45;&#45;D3</title>
<path style="fill:none;stroke:black;stroke-width:2;" d="M410,-710C400,-716 388,-723 379,-729"/>
</g>
<!-- D5 -->
<g id="node23" class="node"><title>D5</title>
<ellipse style="fill:red;stroke:black;" cx="416" cy="-624" rx="25.0158" ry="18"/>
<text text-anchor="middle" x="416" y="-619.9" style="font-family:Times New Roman;font-size:14.00;">D5</text>
</g>
<!-- D2&#45;&#45;D5 -->
<g id="edge36" class="edge"><title>D2&#45;&#45;D5</title>
<path style="fill:none;stroke:black;stroke-width:2;" d="M427,-681C424,-669 421,-654 419,-642"/>
</g>
<!-- E1 -->
<g id="node25" class="node"><title>E1</title>
<ellipse style="fill:lightgrey;stroke:black;" cx="94" cy="-605" rx="23.1233" ry="18"/>
<text text-anchor="middle" x="94" y="-600.9" style="font-family:Times New Roman;font-size:14.00;">E1</text>
</g>
<!-- D3&#45;&#45;E1 -->
<g id="edge58" class="edge"><title>D3&#45;&#45;E1</title>
<path style="fill:none;stroke:black;" d="M338,-729C288,-704 162,-640 113,-615"/>
</g>
<!-- D4&#45;&#45;A6 -->
<g id="edge78" class="edge"><title>D4&#45;&#45;A6</title>
<path style="fill:none;stroke:black;" d="M349,-558C320,-505 231,-339 202,-286"/>
</g>
<!-- D4&#45;&#45;D5 -->
<g id="edge38" class="edge"><title>D4&#45;&#45;D5</title>
<path style="fill:none;stroke:black;stroke-width:2;" d="M374,-589C382,-595 392,-603 400,-610"/>
</g>
<!-- D5&#45;&#45;D6 -->
<g id="edge40" class="edge"><title>D5&#45;&#45;D6</title>
<path style="fill:none;stroke:black;stroke-width:2;" d="M425,-607C431,-597 437,-584 443,-574"/>
</g>
<!-- D6&#45;&#45;A4 -->
<g id="edge88" class="edge"><title>D6&#45;&#45;A4</title>
<path style="fill:none;stroke:black;" d="M443,-540C412,-482 310,-291 279,-233"/>
</g>
<!-- E1&#45;&#45;A3 -->
<g id="edge70" class="edge"><title>E1&#45;&#45;A3</title>
<path style="fill:none;stroke:black;stroke-dasharray:5,2;" d="M97,-587C110,-505 165,-165 178,-83"/>
</g>
<!-- E2 -->
<g id="node26" class="node"><title>E2</title>
<ellipse style="fill:blue;stroke:black;" cx="84" cy="-524" rx="23.1233" ry="18"/>
<text text-anchor="middle" x="84" y="-519.9" style="font-family:Times New Roman;font-size:14.00;">E2</text>
</g>
<!-- E1&#45;&#45;E2 -->
<g id="edge42" class="edge"><title>E1&#45;&#45;E2</title>
<path style="fill:none;stroke:black;stroke-width:2;" d="M92,-587C90,-574 88,-556 86,-542"/>
</g>
<!-- E2&#45;&#45;E3 -->
<g id="edge44" class="edge"><title>E2&#45;&#45;E3</title>
<path style="fill:none;stroke:black;stroke-width:2;" d="M69,-510C60,-502 48,-491 39,-483"/>
</g>
<!-- E5 -->
<g id="node29" class="node"><title>E5</title>
<ellipse style="fill:lightgrey;stroke:black;" cx="152" cy="-489" rx="23.1233" ry="18"/>
<text text-anchor="middle" x="152" y="-484.9" style="font-family:Times New Roman;font-size:14.00;">E5</text>
</g>
<!-- E2&#45;&#45;E5 -->
<g id="edge46" class="edge"><title>E2&#45;&#45;E5</title>
<path style="fill:none;stroke:black;stroke-width:2;" d="M103,-514C112,-509 123,-504 133,-499"/>
</g>
<!-- E3&#45;&#45;A1 -->
<g id="edge60" class="edge"><title>E3&#45;&#45;A1</title>
<path style="fill:none;stroke:black;" d="M27,-451C35,-397 59,-241 67,-188"/>
</g>
<!-- E4&#45;&#45;B6 -->
<g id="edge80" class="edge"><title>E4&#45;&#45;B6</title>
<path style="fill:none;stroke:black;" d="M192,-405C235,-362 363,-237 407,-194"/>
</g>
<!-- E4&#45;&#45;E5 -->
<g id="edge48" class="edge"><title>E4&#45;&#45;E5</title>
<path style="fill:none;stroke:black;stroke-width:2;" d="M171,-437C167,-447 162,-461 158,-471"/>
</g>
<!-- E5&#45;&#45;E6 -->
<g id="edge50" class="edge"><title>E5&#45;&#45;E6</title>
<path style="fill:none;stroke:black;stroke-width:2;" d="M175,-491C185,-492 196,-493 205,-494"/>
</g>
<!-- E6&#45;&#45;B4 -->
<g id="edge90" class="edge"><title>E6&#45;&#45;B4</title>
<path style="fill:none;stroke:black;" d="M242,-482C291,-435 447,-282 495,-234"/>
</g>
</g>
</svg>
